<?xml version="1.0" encoding="UTF-8"?>
<svg width="700pt" height="700pt" version="1.1" viewBox="0 0 700 700" xmlns="http://www.w3.org/2000/svg" xmlns:xlink="http://www.w3.org/1999/xlink">
 <defs>
  <symbol id="m" overflow="visible">
   <path d="m37.516-2.25c-1.9297 1.0117-3.9453 1.7734-6.0469 2.2812-2.0938 0.50781-4.2812 0.76562-6.5625 0.76562-6.793 0-12.18-1.8984-16.156-5.7031-3.9688-3.8008-5.9531-8.957-5.9531-15.469 0-6.5195 1.9844-11.68 5.9531-15.484 3.9766-3.8008 9.3633-5.7031 16.156-5.7031 2.2812 0 4.4688 0.25781 6.5625 0.76562 2.1016 0.51172 4.1172 1.2656 6.0469 2.2656v8.4531c-1.9492-1.332-3.8711-2.3047-5.7656-2.9219-1.8984-0.625-3.8906-0.9375-5.9844-0.9375-3.7617 0-6.7188 1.2031-8.875 3.6094-2.1484 2.4062-3.2188 5.7266-3.2188 9.9531 0 4.2109 1.0703 7.5156 3.2188 9.9219 2.1562 2.4062 5.1133 3.6094 8.875 3.6094 2.0938 0 4.0859-0.30469 5.9844-0.92188 1.8945-0.625 3.8164-1.5977 5.7656-2.9219z"/>
  </symbol>
  <symbol id="c" overflow="visible">
   <path d="m27.453-22.281c-0.85547-0.40625-1.7109-0.70312-2.5625-0.89062-0.84375-0.19531-1.6953-0.29688-2.5469-0.29688-2.5234 0-4.4609 0.80859-5.8125 2.4219-1.3555 1.6172-2.0312 3.9297-2.0312 6.9375v14.109h-9.7969v-30.625h9.7969v5.0312c1.25-2.0078 2.6914-3.4727 4.3281-4.3906 1.6328-0.91406 3.5859-1.375 5.8594-1.375 0.33203 0 0.6875 0.015625 1.0625 0.046875 0.38281 0.023438 0.94141 0.078125 1.6719 0.17188z"/>
  </symbol>
  <symbol id="a" overflow="visible">
   <path d="m35.281-15.391v2.7812h-22.891c0.23828 2.3047 1.0664 4.0273 2.4844 5.1719 1.4258 1.1484 3.4141 1.7188 5.9688 1.7188 2.0508 0 4.1562-0.30078 6.3125-0.90625 2.1641-0.61328 4.3906-1.5391 6.6719-2.7812v7.5469c-2.3125 0.875-4.6328 1.5391-6.9531 1.9844-2.3125 0.44531-4.625 0.67188-6.9375 0.67188-5.543 0-9.8516-1.4062-12.922-4.2188-3.0742-2.8203-4.6094-6.7734-4.6094-11.859 0-5 1.5039-8.9258 4.5156-11.781 3.0195-2.8633 7.1758-4.2969 12.469-4.2969 4.8125 0 8.6602 1.4492 11.547 4.3438 2.8945 2.8984 4.3438 6.7734 4.3438 11.625zm-10.062-3.2656c0-1.8516-0.54688-3.3477-1.6406-4.4844-1.0859-1.1445-2.5-1.7188-4.25-1.7188-1.8984 0-3.4375 0.53906-4.625 1.6094-1.1797 1.0625-1.9141 2.5938-2.2031 4.5938z"/>
  </symbol>
  <symbol id="b" overflow="visible">
   <path d="m18.438-13.781c-2.043 0-3.5781 0.35156-4.6094 1.0469-1.0312 0.6875-1.5469 1.7031-1.5469 3.0469 0 1.2422 0.41016 2.2148 1.2344 2.9219 0.83203 0.69922 1.9883 1.0469 3.4688 1.0469 1.8438 0 3.3906-0.66016 4.6406-1.9844 1.2578-1.3203 1.8906-2.9727 1.8906-4.9531v-1.125zm14.953-3.6875v17.469h-9.875v-4.5469c-1.3125 1.8672-2.793 3.2266-4.4375 4.0781-1.6367 0.84375-3.6328 1.2656-5.9844 1.2656-3.168 0-5.7422-0.92578-7.7188-2.7812-1.9805-1.8516-2.9688-4.2539-2.9688-7.2031 0-3.5938 1.2344-6.2266 3.7031-7.9062 2.4688-1.6758 6.3477-2.5156 11.641-2.5156h5.7656v-0.76562c0-1.5508-0.60938-2.6875-1.8281-3.4062s-3.125-1.0781-5.7188-1.0781c-2.0938 0-4.0469 0.21484-5.8594 0.64062-1.8047 0.41797-3.4766 1.043-5.0156 1.875v-7.4688c2.0938-0.50781 4.1953-0.89453 6.3125-1.1562 2.1133-0.25781 4.2266-0.39062 6.3438-0.39062 5.5195 0 9.5039 1.0898 11.953 3.2656 2.457 2.1797 3.6875 5.7188 3.6875 10.625z"/>
  </symbol>
  <symbol id="h" overflow="visible">
   <path d="m15.391-39.328v8.7031h10.094v7h-10.094v12.984c0 1.4297 0.28125 2.3906 0.84375 2.8906 0.57031 0.5 1.6953 0.75 3.375 0.75h5.0312v7h-8.3906c-3.8672 0-6.6055-0.80469-8.2188-2.4219-1.6172-1.6133-2.4219-4.3516-2.4219-8.2188v-12.984h-4.875v-7h4.875v-8.7031z"/>
  </symbol>
  <symbol id="g" overflow="visible">
   <path d="m25.547-26.141v-16.406h9.8438v42.547h-9.8438v-4.4375c-1.3555 1.8125-2.8438 3.1406-4.4688 3.9844-1.6172 0.83203-3.4922 1.25-5.625 1.25-3.7734 0-6.8711-1.5-9.2969-4.5-2.4297-3-3.6406-6.8594-3.6406-11.578 0-4.7266 1.2109-8.5859 3.6406-11.578 2.4258-3 5.5234-4.5 9.2969-4.5 2.1133 0 3.9844 0.42188 5.6094 1.2656 1.6328 0.84375 3.1289 2.1641 4.4844 3.9531zm-6.4531 19.828c2.0938 0 3.6914-0.76562 4.7969-2.2969 1.1016-1.5312 1.6562-3.7539 1.6562-6.6719 0-2.9141-0.55469-5.1406-1.6562-6.6719-1.1055-1.5312-2.7031-2.2969-4.7969-2.2969-2.0859 0-3.6797 0.76562-4.7812 2.2969-1.1055 1.5312-1.6562 3.7578-1.6562 6.6719 0 2.918 0.55078 5.1406 1.6562 6.6719 1.1016 1.5312 2.6953 2.2969 4.7812 2.2969z"/>
  </symbol>
  <symbol id="f" overflow="visible">
   <path d="m21-6.3125c2.0938 0 3.6914-0.76562 4.7969-2.2969 1.1016-1.5312 1.6562-3.7539 1.6562-6.6719 0-2.9141-0.55469-5.1406-1.6562-6.6719-1.1055-1.5312-2.7031-2.2969-4.7969-2.2969s-3.7031 0.77344-4.8281 2.3125c-1.1172 1.5312-1.6719 3.75-1.6719 6.6562 0 2.8984 0.55469 5.1172 1.6719 6.6562 1.125 1.543 2.7344 2.3125 4.8281 2.3125zm-6.5-19.828c1.3438-1.7891 2.832-3.1094 4.4688-3.9531 1.6445-0.84375 3.5352-1.2656 5.6719-1.2656 3.7695 0 6.8672 1.5 9.2969 4.5 2.4258 2.9922 3.6406 6.8516 3.6406 11.578 0 4.7188-1.2148 8.5781-3.6406 11.578-2.4297 3-5.5273 4.5-9.2969 4.5-2.1367 0-4.0273-0.42188-5.6719-1.2656-1.6367-0.85156-3.125-2.1758-4.4688-3.9688v4.4375h-9.7969v-42.547h9.7969z"/>
  </symbol>
  <symbol id="e" overflow="visible">
   <path d="m0.6875-30.625h9.7812l8.2344 20.781 7-20.781h9.7969l-12.891 33.531c-1.293 3.4062-2.8047 5.7852-4.5312 7.1406-1.7188 1.3633-3.9922 2.0469-6.8125 2.0469h-5.6562v-6.4375h3.0625c1.6562 0 2.8594-0.26562 3.6094-0.79688 0.75781-0.52344 1.3516-1.4648 1.7812-2.8281l0.26562-0.85938z"/>
  </symbol>
  <symbol id="d" overflow="visible">
   <path d="m41.844-3.0312c-2.625 1.2734-5.3555 2.2305-8.1875 2.875-2.8242 0.63281-5.7422 0.95312-8.75 0.95312-6.793 0-12.18-1.8984-16.156-5.7031-3.9688-3.8008-5.9531-8.957-5.9531-15.469 0-6.582 2.0195-11.758 6.0625-15.531 4.0508-3.7695 9.5938-5.6562 16.625-5.6562 2.7188 0 5.3203 0.25781 7.8125 0.76562 2.4883 0.51172 4.832 1.2656 7.0312 2.2656v8.4531c-2.2734-1.2891-4.5391-2.2539-6.7969-2.8906-2.25-0.64453-4.5078-0.96875-6.7656-0.96875-4.1875 0-7.418 1.1719-9.6875 3.5156-2.2734 2.3438-3.4062 5.6953-3.4062 10.047 0 4.3242 1.0938 7.6641 3.2812 10.016 2.1875 2.3438 5.2969 3.5156 9.3281 3.5156 1.0938 0 2.1094-0.066406 3.0469-0.20312 0.9375-0.13281 1.7812-0.34766 2.5312-0.64062v-7.9219h-6.4219v-7.0625h16.406z"/>
  </symbol>
  <symbol id="l" overflow="visible">
   <path d="m19.281-24.359c-2.168 0-3.8242 0.78125-4.9688 2.3438-1.1367 1.5547-1.7031 3.7969-1.7031 6.7344 0 2.9297 0.56641 5.1719 1.7031 6.7344 1.1445 1.5625 2.8008 2.3438 4.9688 2.3438 2.1328 0 3.7656-0.78125 4.8906-2.3438 1.1328-1.5625 1.7031-3.8047 1.7031-6.7344 0-2.9375-0.57031-5.1797-1.7031-6.7344-1.125-1.5625-2.7578-2.3438-4.8906-2.3438zm0-7c5.2695 0 9.3828 1.4219 12.344 4.2656 2.957 2.8438 4.4375 6.7812 4.4375 11.812s-1.4805 8.9688-4.4375 11.812c-2.9609 2.8438-7.0742 4.2656-12.344 4.2656-5.293 0-9.4297-1.4219-12.406-4.2656-2.9805-2.8438-4.4688-6.7812-4.4688-11.812s1.4883-8.9688 4.4688-11.812c2.9766-2.8438 7.1133-4.2656 12.406-4.2656z"/>
  </symbol>
  <symbol id="k" overflow="visible">
   <path d="m25.547-5.2031c-1.3555 1.793-2.8438 3.1094-4.4688 3.9531-1.6172 0.83594-3.4922 1.25-5.625 1.25-3.7422 0-6.8359-1.4688-9.2812-4.4062-2.4375-2.9453-3.6562-6.7031-3.6562-11.266 0-4.5703 1.2188-8.3203 3.6562-11.25 2.4453-2.9258 5.5391-4.3906 9.2812-4.3906 2.1328 0 4.0078 0.42188 5.625 1.2656 1.625 0.83594 3.1133 2.1523 4.4688 3.9531v-4.5312h9.8438v27.531c0 4.9258-1.5586 8.6875-4.6719 11.281-3.1055 2.6016-7.6094 3.9062-13.516 3.9062-1.918 0-3.7734-0.14844-5.5625-0.4375-1.7812-0.29297-3.5742-0.74219-5.375-1.3438v-7.625c1.707 0.97656 3.3789 1.707 5.0156 2.1875 1.6445 0.48828 3.3008 0.73438 4.9688 0.73438 3.207 0 5.5547-0.70312 7.0469-2.1094 1.5-1.4062 2.25-3.6016 2.25-6.5938zm-6.4531-19.047c-2.0312 0-3.6172 0.75-4.75 2.25-1.125 1.4922-1.6875 3.6016-1.6875 6.3281 0 2.8125 0.54688 4.9453 1.6406 6.3906 1.0938 1.4492 2.6914 2.1719 4.7969 2.1719 2.0391 0 3.625-0.74219 4.75-2.2344 1.1328-1.5 1.7031-3.6094 1.7031-6.3281 0-2.7266-0.57031-4.8359-1.7031-6.3281-1.125-1.5-2.7109-2.25-4.75-2.25z"/>
  </symbol>
  <symbol id="j" overflow="visible">
   <path d="m4.7031-30.625h9.7969v30.625h-9.7969zm0-11.922h9.7969v7.9844h-9.7969z"/>
  </symbol>
  <symbol id="i" overflow="visible">
   <path d="m35.5-18.656v18.656h-9.8438v-14.281c0-2.6328-0.0625-4.4531-0.1875-5.4531-0.11719-1.0078-0.32031-1.75-0.60938-2.2188-0.38672-0.64453-0.90625-1.1445-1.5625-1.5-0.65625-0.35156-1.4023-0.53125-2.2344-0.53125-2.043 0-3.6484 0.79297-4.8125 2.375-1.168 1.5742-1.75 3.7578-1.75 6.5469v15.062h-9.7969v-30.625h9.7969v4.4844c1.4688-1.7891 3.0312-3.1094 4.6875-3.9531 1.6641-0.84375 3.5-1.2656 5.5-1.2656 3.5391 0 6.2266 1.0859 8.0625 3.25 1.832 2.168 2.75 5.3203 2.75 9.4531z"/>
  </symbol>
 </defs>
 <g>
  <path d="m387.68 233.36-27.887-34.172 0.3125-125.18 10-3.4141 139 30.23 85.656 123.66-55.25 214.79-124.98 51.328-62.777-0.55859 64.324-69.598-56.113-124.15zm-159.24-114.42 99.098-33.824-0.3125 125.66 22.566 27.664-25.547 57.992 53.223 117.75-69.664 75.41-83.551-44.922-14.035-45.238-51.688-15.332-29.633-114.98 91.941-82.152zm-30.113-24.191-8.5352 76.316-97.34 86.977 39.188 152.06 52.641 15.625 12.812 41.363 102.39 55.035 121.4 1.0977 146.07-60 63.055-245.09-101.47-146.5-160.32-34.863zm-56.887 360.21-53.93-13.789-17.504 41.645 10.754 28.887 53.199 9.6641 24.672-30.441zm22.289-325.37-36.602-7.0195-21.426 16.688 5.4102 25.258 34.887 9.2969 15.367-14.281z" fill-rule="evenodd"/>
  <use x="70" y="728" xlink:href="#m"/>
  <use x="111.097656" y="728" xlink:href="#c"/>
  <use x="138.714844" y="728" xlink:href="#a"/>
  <use x="176.695312" y="728" xlink:href="#b"/>
  <use x="214.484375" y="728" xlink:href="#h"/>
  <use x="241.253906" y="728" xlink:href="#a"/>
  <use x="279.234375" y="728" xlink:href="#g"/>
  <use x="338.816406" y="728" xlink:href="#f"/>
  <use x="378.902344" y="728" xlink:href="#e"/>
  <use x="434.902344" y="728" xlink:href="#d"/>
  <use x="480.867188" y="728" xlink:href="#a"/>
  <use x="518.847656" y="728" xlink:href="#l"/>
  <use x="557.320312" y="728" xlink:href="#c"/>
  <use x="584.9375" y="728" xlink:href="#k"/>
  <use x="625.023438" y="728" xlink:href="#j"/>
  <use x="644.21875" y="728" xlink:href="#b"/>
  <use x="682.007812" y="728" xlink:href="#i"/>
 </g>
</svg>
